 <svg  version="1.0" xmlns="http://www.w3.org/2000/svg"  width="192.000000pt" height="192.000000pt" viewBox="0 0 192.000000 192.000000"  preserveAspectRatio="xMidYMid meet">  <g transform="translate(0.000000,192.000000) scale(0.100000,-0.100000)" fill="#ff0000" stroke="none"> <path d="M813 1705 c-62 -17 -122 -46 -180 -88 -34 -24 -40 -33 -33 -48 6 -9 26 -67 46 -128 l35 -111 84 0 c57 0 85 -4 88 -12 3 -7 6 6 6 30 1 58 23 105 61 132 101 72 224 22 249 -100 l11 -55 93 3 c81 3 96 1 117 -16 l25 -20 -34 -137 c-41 -168 -54 -186 -137 -196 -32 -3 -157 -7 -276 -8 l-218 -2 -34 33 c-31 29 -43 58 -106 258 -39 124 -76 236 -83 250 -12 24 -17 25 -112 28 -54 1 -104 7 -111 12 -18 16 -5 58 20 63 11 3 56 6 98 6 60 1 85 -3 115 -19 44 -23 58 -10 24 24 -19 19 -35 21 -142 24 -104 3 -123 1 -140 -14 -10 -9 -19 -26 -19 -36 0 -28 47 -115 65 -122 9 -3 47 -6 84 -6 37 0 70 -3 74 -6 3 -4 -3 -24 -14 -45 -31 -62 -52 -158 -52 -244 0 -156 54 -288 162 -396 111 -111 219 -154 386 -153 128 1 188 19 295 89 149 98 240 277 240 469 -1 246 -181 479 -416 540 -75 19 -201 20 -271 1z m298 -27 c81 -30 163 -84 222 -147 91 -97 121 -197 114 -376 -7 -163 -35 -263 -89 -312 -18 -16 -20 -15 -53 17 -31 30 -37 32 -80 27 -32 -5 -44 -3 -39 4 4 8 -4 9 -27 4 -19 -4 -108 -7 -200 -7 -91 1 -178 -2 -195 -6 -38 -11 -79 -82 -75 -132 3 -34 2 -34 -16 -17 -11 9 -24 17 -29 17 -26 0 -126 136 -151 205 -46 126 -50 259 -12 369 14 38 30 71 36 73 7 3 22 -27 37 -74 97 -299 117 -344 165 -371 36 -21 52 -22 246 -22 177 0 209 -2 219 -16 10 -14 17 -12 56 10 25 14 52 26 62 26 20 0 68 55 68 79 0 10 3 21 7 25 4 3 8 13 10 21 3 15 4 19 18 67 4 16 11 26 15 23 33 -20 7 142 -37 233 -84 172 -235 278 -428 302 l-70 9 81 -4 c50 -3 105 -13 145 -27z m-54 -23 c28 -8 62 -21 75 -28 105 -55 228 -190 228 -250 0 -26 -1 -27 -57 -26 -81 2 -100 11 -112 56 -13 46 -62 100 -107 119 -19 8 -67 14 -109 14 -84 0 -103 7 -155 55 -19 18 -48 37 -65 43 l-30 10 28 1 c34 1 65 -14 92 -45 27 -31 94 -59 108 -45 8 8 8 11 0 11 -18 0 -103 70 -103 85 0 21 139 20 207 0z m-256 -80 c25 -24 60 -46 77 -50 18 -3 32 -8 32 -10 0 -9 -60 -92 -79 -109 -12 -11 -21 -25 -21 -32 0 -16 -87 -31 -101 -17 -13 13 -60 150 -66 190 -4 27 0 35 34 57 46 32 63 28 124 -29z m491 -735 c37 -45 13 -104 -53 -129 -35 -13 -72 6 -83 44 l-9 30 -138 0 c-127 0 -139 -2 -139 -18 0 -10 -11 -29 -25 -42 -69 -69 -175 23 -119 103 9 13 24 26 35 30 10 4 129 7 265 6 244 -1 248 -2 266 -24z m-159 -110 c15 -16 27 -34 27 -39 0 -16 -90 -43 -165 -48 -47 -4 -98 -1 -137 8 -35 7 -66 12 -70 11 -5 -1 -8 3 -8 8 0 6 14 13 31 17 16 3 42 18 57 33 37 36 44 38 148 39 89 1 91 0 117 -29z"/> <path d="M774 795 c-9 -22 22 -53 37 -38 15 15 7 47 -14 51 -9 2 -20 -4 -23 -13z"/> <path d="M1206 795 c-3 -8 2 -22 11 -30 14 -15 18 -15 31 -1 8 8 12 22 9 30 -8 20 -43 21 -51 1z"/> <path d="M965 1405 c-14 -13 -25 -36 -25 -50 0 -24 2 -25 64 -25 36 0 68 -5 71 -10 12 -20 24 1 19 33 -7 39 -46 77 -80 77 -14 0 -36 -11 -49 -25z m70 -35 c0 -10 -8 -14 -24 -12 -30 3 -35 7 -26 22 10 16 50 8 50 -10z"/> <path d="M700 1225 c0 -32 25 -35 307 -35 213 0 283 -3 283 -12 0 -20 18 5 26 35 l7 29 -312 -4 c-208 -2 -311 -6 -311 -13z"/> <path d="M750 1079 c6 -11 17 -22 23 -24 7 -3 121 -6 254 -7 l243 -3 9 28 10 27 -275 0 c-274 0 -275 0 -264 -21z"/> <path d="M314 505 c-3 -6 -4 -47 -2 -91 3 -71 5 -79 23 -79 14 0 21 8 23 28 5 38 36 36 52 -3 11 -28 16 -30 61 -30 38 0 52 4 61 20 8 13 24 20 43 20 19 0 35 -7 43 -20 12 -19 52 -28 52 -12 0 5 -15 46 -33 93 -25 64 -38 85 -53 87 -12 2 -26 -3 -31 -10 -10 -12 -48 -99 -67 -153 -6 -18 -9 -17 -28 13 -19 30 -19 34 -4 51 21 23 20 54 -1 73 -23 20 -133 30 -139 13z m106 -55 c0 -16 -7 -20 -30 -20 -23 0 -30 4 -30 20 0 16 7 20 30 20 23 0 30 -4 30 -20z m173 -20 c3 -14 0 -23 -9 -27 -22 -8 -33 9 -23 35 10 26 24 23 32 -8z"/> <path d="M690 426 l0 -96 25 0 26 0 -3 93 c-3 87 -4 92 -25 95 -22 3 -23 1 -23 -92z"/> <path d="M780 500 c-37 -37 -22 -73 37 -89 15 -4 28 -14 28 -22 0 -13 -12 -15 -60 -7 -34 5 -25 -34 10 -43 59 -16 113 19 101 65 -5 19 -17 28 -46 37 -51 15 -56 43 -6 34 25 -5 35 -3 39 9 14 36 -70 49 -103 16z"/> <path d="M910 493 c0 -18 6 -23 25 -23 24 0 25 -2 25 -70 0 -68 1 -70 25 -70 24 0 25 2 25 70 0 69 1 70 26 70 21 0 25 4 22 22 -3 21 -8 22 -75 23 -69 0 -73 -1 -73 -22z"/> <path d="M1098 491 c-82 -74 11 -198 110 -147 70 36 71 125 2 161 -43 22 -76 18 -112 -14z m98 -29 c38 -26 1 -97 -46 -85 -53 14 -46 93 8 93 15 0 32 -4 38 -8z"/> <path d="M1290 426 l0 -96 26 0 c23 0 26 3 22 30 -4 24 -1 30 14 30 10 0 24 -11 30 -25 11 -25 52 -44 65 -31 4 3 -4 20 -16 37 -21 28 -22 31 -6 43 23 17 22 66 -1 83 -10 7 -34 13 -53 13 -20 0 -46 3 -58 6 -23 6 -23 5 -23 -90z m105 24 c0 -23 -59 -20 -63 3 -3 15 2 18 30 15 21 -2 33 -8 33 -18z"/> <path d="M1469 515 c0 0 -1 -40 -2 -90 l-1 -90 67 -3 c66 -3 67 -3 67 23 0 25 -3 26 -42 23 -35 -2 -43 1 -46 16 -4 17 1 18 32 13 32 -5 36 -3 36 17 0 19 -4 21 -35 18 -27 -3 -35 -1 -35 12 0 12 10 16 45 16 41 0 45 2 45 23 0 23 -3 24 -65 23 -36 -1 -65 -1 -66 -1z"/> <path d="M622 258 c-7 -7 -12 -15 -12 -19 0 -16 31 -38 45 -33 21 8 19 34 -2 34 -15 0 -16 -2 -3 -10 13 -8 12 -10 -3 -10 -12 0 -17 6 -15 18 2 9 11 16 21 16 9 -1 17 2 17 7 0 13 -34 11 -48 -3z"/> <path d="M682 240 c1 -16 5 -30 10 -30 4 0 8 5 8 10 0 6 7 10 16 10 8 0 12 -4 9 -10 -3 -5 -1 -10 4 -10 6 0 11 14 11 30 0 17 -5 30 -11 30 -5 0 -7 -4 -4 -10 3 -5 -1 -10 -9 -10 -9 0 -16 5 -16 10 0 6 -4 10 -9 10 -5 0 -9 -13 -9 -30z"/> <path d="M750 240 c0 -16 5 -30 10 -30 6 0 10 14 10 30 0 17 -4 30 -10 30 -5 0 -10 -13 -10 -30z"/> <path d="M780 241 c0 -17 5 -31 10 -31 6 0 10 5 10 12 0 6 7 3 15 -8 14 -18 14 -17 12 16 -2 28 -7 36 -25 38 -19 3 -22 -1 -22 -27z"/> <path d="M860 240 c0 -30 23 -51 38 -35 4 4 1 10 -5 12 -7 3 -13 16 -13 29 0 13 -4 24 -10 24 -5 0 -10 -14 -10 -30z"/> <path d="M940 258 c0 -7 -3 -24 -6 -38 -4 -18 -3 -21 4 -11 6 8 17 11 26 8 18 -7 19 -3 10 31 -7 23 -34 31 -34 10z"/> <path d="M990 240 c0 -34 5 -37 26 -16 11 11 11 16 1 19 -9 4 -8 8 3 16 12 9 11 11 -7 11 -19 0 -23 -6 -23 -30z"/> <path d="M1040 240 c0 -34 5 -37 26 -15 9 8 11 15 5 15 -18 0 -12 18 7 23 10 3 6 5 -10 6 -25 1 -28 -3 -28 -29z"/> <path d="M1099 243 c-5 -14 -8 -31 -5 -37 3 -7 5 -6 5 2 1 9 11 11 36 6 34 -6 35 -5 35 25 0 38 -20 42 -21 4 l-1 -28 -11 28 c-14 34 -25 34 -38 0z"/> <path d="M1180 241 c0 -31 14 -42 23 -18 4 10 6 10 6 0 2 -26 17 -12 16 15 -1 20 -7 28 -23 30 -19 3 -22 -2 -22 -27z"/> <path d="M1240 241 c0 -31 26 -49 44 -31 7 7 2 10 -14 11 -17 1 -20 3 -7 6 20 5 23 23 5 23 -9 0 -8 4 2 10 12 8 11 10 -7 10 -19 0 -23 -6 -23 -29z"/> <path d="M190 230 c0 -6 68 -10 185 -10 117 0 185 4 185 10 0 6 -68 10 -185 10 -117 0 -185 -4 -185 -10z"/> <path d="M1320 230 c0 -6 68 -10 185 -10 117 0 185 4 185 10 0 6 -68 10 -185 10 -117 0 -185 -4 -185 -10z"/> </g> </svg> 